# generated from PmQm by Jehee Lee
:FULLY-SPECIFIED
:DEGREES
120
root 20.40221533 36.885 -85.02184294 139.2555376 83.56427067 138.747404
RightUpLeg 10.32615359 5.531668253 -10.22580226
RightLeg 41.90722136 0.7373508908 -0.2742957739
RightFoot 14.23849646 1.386579521 11.0479659
RightToes 1.92085e-009 -1.59028e-015 9.93923e-017
Spine -0.490213 4.44872 4.75584
Spine1 11.1634 7.53763 -13.1872
HEad -15.3519 -4.83407 7.07683
LeftShoulder1 9.93923e-017 0 1.22299e-017
LeftArm -0.692334 58.0747 -42.3832
LeftForeArm -8.04227 -0.90547 -3.13754
LeftHand 1.15485 8.34979 -1.84156
RightShoulder 1.98785e-016 -4.96962e-017 1.55301e-017
RightArm 17.776 -6.98092 90.5805
RightForeArm -30.7163 37.816 -34.1903
RightHand 2.01711 -13.5154 -11.9322
LeftUpLeg -34.88518354 -4.523923508 -2.5806977
LeftLeg 33.752474 0 0
LeftFoot -0.126678558 -0.3318115834 3.419583199
LeftToes 4.31103e-010 -3.63601e-011 9.64948e-011
121
root 22.1971113 36.918 -85.46404692 131.7305505 82.6324082 131.1544202
RightUpLeg 2.319821027 5.352377294 -12.22571898
RightLeg 54.59770586 -0.1231356445 -1.543362156
RightFoot 19.72429315 3.654200871 7.465954279
RightToes 1.92085e-009 -1.59028e-015 9.93923e-017
Spine -0.209503 3.66018 1.71755
Spine1 11.8734 6.31896 -12.7272
HEad -15.9212 -3.10658 5.78062
LeftShoulder1 9.93923e-017 0 1.22299e-017
LeftArm -9.88977 55.3053 -54.3007
LeftForeArm -4.96971 -0.963644 -3.2801
LeftHand 1.14793 8.44122 -3.41312
RightShoulder 1.98785e-016 -4.96962e-017 1.55301e-017
RightArm 20.52 -12.4818 93.2076
RightForeArm -32.836 31.9129 -28.9753
RightHand 1.92657 -13.4121 -10.8505
LeftUpLeg -33.08364623 -4.747074412 -4.20915454
LeftLeg 37.05975146 0 0
LeftFoot -4.968918315 -0.1674052376 5.017473442
LeftToes 4.31103e-010 -3.63601e-011 9.64948e-011
122
root 24.04338332 36.61500314 -85.9302327 132.9662368 83.16014315 131.9053877
RightUpLeg 3.052160178 6.475156743 -11.96324511
RightLeg 56.25454716 0 0
RightFoot 16.63465579 7.034024581 4.41571546
RightToes 1.74622e-010 -3.18055e-015 8.94531e-016
Spine -0.9528116511 4.155213522 2.388174185
Spine1 12.35264488 7.094214488 -13.01043863
HEad -16.90150435 -3.377321841 6.015521295
LeftShoulder1 0 -2.69403e-036 -1.28585e-037
LeftArm -8.092020181 56.99188451 -50.08809494
LeftForeArm -3.517116989 -0.2830322414 -2.969448838
LeftHand 1.221666236 8.946922425 -4.170641826
RightShoulder -2.48481e-017 0 -8.08114e-019
RightArm 19.09325616 -10.94382431 92.41937529
RightForeArm -32.8189124 32.69796368 -29.66893852
RightHand 2.008940655 -13.55840761 -11.61729408
LeftUpLeg -35.42651233 -5.349599328 -4.576543346
LeftLeg 36.50234512 -0.03285155989 -0.1177604267
LeftFoot -6.599468718 2.937898772 4.551915523
LeftToes 4.94765e-010 2.02697e-011 4.00889e-011
123
root 26.01611594 36.4398472 -86.43838408 138.748942 83.72682963 137.7599036
RightUpLeg 5.967397727 7.535977039 -10.1541049
RightLeg 52.50319816 0 0
RightFoot 10.70337677 7.963201373 5.387237609
RightToes 1.74622e-010 -3.18055e-015 8.94531e-016
Spine -2.480421067 4.755956298 3.220771237
Spine1 13.54080685 7.854039508 -12.333558
HEad -17.92999764 -4.131999409 6.465144673
LeftShoulder1 0 -2.69403e-036 -1.28585e-037
LeftArm -6.573455703 58.79702946 -47.77516163
LeftForeArm -2.893902624 -0.2356196306 -2.677770624
LeftHand 1.35306937 9.83823384 -4.372385305
RightShoulder -2.48481e-017 0 -8.08114e-019
RightArm 16.49453113 -10.42030227 90.70917179
RightForeArm -33.3520534 33.79205477 -30.64035836
RightHand 1.993367369 -13.44307192 -11.50202124
LeftUpLeg -36.42608787 -5.129696827 -3.141566644
LeftLeg 35.83675211 0 0
LeftFoot -4.679308492 5.249222186 4.108912411
LeftToes 4.94765e-010 2.02697e-011 4.00889e-011
124
root 28.03862578 36.34364354 -86.98246332 142.3536287 83.92123248 141.9791986
RightUpLeg 9.196213292 6.618842404 -9.847004988
RightLeg 48.49855832 0 0
RightFoot 4.33059053 10.83044786 6.766709359
RightToes 1.74622e-010 -3.18055e-015 8.94531e-016
Spine -3.689955567 5.376750425 3.61278876
Spine1 14.7734311 8.520732672 -11.5334111
HEad -18.82436071 -5.113393166 7.382915452
LeftShoulder1 0 -2.69403e-036 -1.28585e-037
LeftArm -5.426282643 60.51880608 -47.5256352
LeftForeArm -3.617663309 -0.3766648285 -2.717845975
LeftHand 1.401939151 10.35905315 -4.507777675
RightShoulder -2.48481e-017 0 -8.08114e-019
RightArm 13.50616327 -11.22185639 88.87344982
RightForeArm -33.90381766 35.00665063 -31.69087735
RightHand 1.890662235 -13.18496727 -10.35522127
LeftUpLeg -36.60580769 -6.275314528 -2.04557069
LeftLeg 35.034878 0 0
LeftFoot 1.204264498 6.700703146 4.057491647
LeftToes 4.94765e-010 2.02697e-011 4.00889e-011
125
root 29.94847721 36.26287555 -87.51470082 142.8994908 83.45213418 143.5918003
RightUpLeg 10.94013949 3.504328112 -11.76102243
RightLeg 48.14692845 0 0
RightFoot 2.563696274 14.25713269 6.941394188
RightToes 1.74622e-010 -3.18055e-015 8.94531e-016
Spine -3.183453562 5.66114716 3.185361304
Spine1 15.21694081 8.672330629 -10.88093804
HEad -19.77882947 -6.012782573 8.34562918
LeftShoulder1 0 -2.69403e-036 -1.28585e-037
LeftArm -6.029752397 61.06534188 -49.94722618
LeftForeArm -4.308442284 -0.5984843054 -3.014972532
LeftHand 1.347506688 10.37300095 -5.381401711
RightShoulder -2.48481e-017 0 -8.08114e-019
RightArm 11.10635867 -13.04479305 87.62796501
RightForeArm -34.5646275 35.98109603 -32.43170364
RightHand 1.804801176 -13.03270494 -9.132594633
LeftUpLeg -36.6419362 -7.076146579 -1.23261257
LeftLeg 35.40168818 0 0
LeftFoot 6.419338614 6.608908402 4.2841436
LeftToes 4.94765e-010 2.02697e-011 4.00889e-011
